<svg xmlns="http://www.w3.org/2000/svg" viewBox="0 0 512 512" role="img" aria-labelledby="title"><title id="title">Together</title><defs>
<linearGradient id="bg" x1="0" y1="0" x2="1" y2="1"><stop stop-color="#4a2630"/><stop offset="1" stop-color="#27161d"/></linearGradient>
<linearGradient id="rose" x1="0" y1="0" x2="1" y2="1"><stop stop-color="#ff8d9c"/><stop offset="1" stop-color="#d93f5c"/></linearGradient>
<linearGradient id="sage" x1="0" y1="1" x2="1" y2="0"><stop stop-color="#3f8d63"/><stop offset="1" stop-color="#8fd0a0"/></linearGradient>
</defs><rect width="512" height="512" rx="116" fill="url(#bg)"/><g transform="translate(256 256) scale(1) translate(-256 -256)"><path d="M256 365c-27-20-112-78-112-158 0-48 34-80 77-80 22 0 41 10 54 28 13-18 32-28 54-28 43 0 77 32 77 80 0 80-85 138-112 158l-19 14-19-14Z" fill="url(#rose)"/>
<path d="M256 379c-22-16-70-50-101-94 51-9 91-41 111-91 15-37 45-64 82-64 36 0 65 22 75 55-1 2-1 4-1 6 0 78-85 137-112 157l-35 25-19 14Z" fill="url(#sage)" opacity=".95"/>
<path d="M191 249c19-29 42-29 65 0s46 29 65 0" fill="none" stroke="#fff4ec" stroke-linecap="round" stroke-width="15"/></g></svg>